<?xml version="1.0" standalone="no"?>
<!DOCTYPE svg PUBLIC "-//W3C//DTD SVG 20010904//EN"
 "http://www.w3.org/TR/2001/REC-SVG-20010904/DTD/svg10.dtd">
<svg version="1.0" xmlns="http://www.w3.org/2000/svg"
 width="308.000000pt" height="308.000000pt" viewBox="0 0 308.000000 308.000000"
 preserveAspectRatio="xMidYMid meet">
<metadata>
Created by potrace 1.11, written by Peter Selinger 2001-2013
</metadata>
<g transform="translate(0.000000,308.000000) scale(0.100000,-0.100000)"
fill="#000000" stroke="none">
<path d="M1305 3064 c-341 -53 -677 -240 -902 -503 -194 -228 -319 -506 -363
-811 -16 -111 -13 -344 5 -452 57 -329 202 -607 434 -837 483 -477 1243 -572
1824 -228 430 256 709 699 746 1186 60 801 -482 1509 -1257 1642 -135 23 -350
24 -487 3z m660 -1214 c0 -580 -7 -704 -44 -813 -65 -189 -173 -288 -368 -338
-148 -37 -384 -23 -508 31 -80 36 -79 32 -45 149 16 57 31 106 34 108 3 3 33
-6 68 -20 135 -54 282 -59 383 -13 83 37 125 106 152 246 11 58 16 201 19 630
3 305 7 561 9 568 4 10 39 12 152 10 l148 -3 0 -555z"/>
</g>
</svg>
